<?xml version="1.0" encoding="utf-8"?>
<!-- Generator: Adobe Illustrator 23.0.1, SVG Export Plug-In . SVG Version: 6.00 Build 0)  -->
<svg version="1.1" id="Camada_2" xmlns="http://www.w3.org/2000/svg" xmlns:xlink="http://www.w3.org/1999/xlink" x="0px" y="0px"
	 viewBox="0 0 100 100" style="enable-background:new 0 0 100 100;" xml:space="preserve">
<style type="text/css">
	.st0{fill:#F76363;}
	.st1{fill:#FFFFFF;}
</style>
<g id="Camada_1">
	<g>
		<path class="st0" d="M98.67,50c0,26.88-21.79,48.67-48.67,48.67C23.12,98.67,1.33,76.88,1.33,50C1.33,23.12,23.12,1.33,50,1.33
			C76.88,1.33,98.67,23.12,98.67,50L98.67,50z M98.67,50"/>
		<path class="st1" d="M18.11,55.04c-1.85,0-3.36-1.51-3.36-3.36c0-12.96,10.55-23.5,23.51-23.5h23.5c1.85,0,3.35,1.5,3.35,3.35
			c0,1.85-1.5,3.36-3.35,3.36h-23.5c-9.26,0-16.79,7.53-16.79,16.78C21.47,53.53,19.96,55.04,18.11,55.04L18.11,55.04z M18.11,55.04
			"/>
		<path class="st1" d="M44.97,48.32c-1.03,0-2.06-0.47-2.71-1.38c-1.09-1.5-0.76-3.6,0.74-4.69l14.73-10.72L42.99,20.82
			c-1.5-1.09-1.83-3.19-0.74-4.69c1.09-1.5,3.19-1.83,4.69-0.74l22.19,16.14L46.94,47.68C46.35,48.12,45.66,48.32,44.97,48.32
			L44.97,48.32z M44.97,48.32"/>
		<path class="st1" d="M60.07,71.83h-23.5c-1.85,0-3.36-1.51-3.36-3.36c0-1.85,1.51-3.36,3.36-3.36h23.5
			c9.25,0,16.79-7.52,16.79-16.79c0-1.85,1.51-3.35,3.36-3.35c1.85,0,3.35,1.5,3.35,3.35C83.57,61.28,73.03,71.83,60.07,71.83
			L60.07,71.83z M60.07,71.83"/>
		<path class="st1" d="M53.35,85.25c-0.68,0-1.37-0.21-1.97-0.64L29.19,68.47l22.19-16.15c1.5-1.09,3.6-0.76,4.69,0.74
			c1.09,1.5,0.76,3.6-0.74,4.69L40.6,68.47l14.74,10.71c1.5,1.09,1.83,3.19,0.74,4.69C55.42,84.77,54.39,85.25,53.35,85.25
			L53.35,85.25z M53.35,85.25"/>
	</g>
</g>
</svg>
