<?xml version="1.0" encoding="utf-8"?>
<!-- Generator: Adobe Illustrator 23.0.1, SVG Export Plug-In . SVG Version: 6.00 Build 0)  -->
<svg version="1.1" id="Camada_1" xmlns="http://www.w3.org/2000/svg" xmlns:xlink="http://www.w3.org/1999/xlink" x="0px" y="0px"
	 viewBox="0 0 100 100" style="enable-background:new 0 0 100 100;" xml:space="preserve">
<style type="text/css">
	.st0{fill:#FFFFFF;}
</style>
<g>
	<g>
		<path class="st0" d="M18.1,55c-1.9,0-3.4-1.5-3.4-3.4c0-13,10.6-23.5,23.5-23.5h23.5c1.8,0,3.3,1.5,3.3,3.4s-1.5,3.4-3.3,3.4H38.3
			c-9.3,0-16.8,7.5-16.8,16.8C21.5,53.5,20,55,18.1,55L18.1,55z"/>
		<path class="st0" d="M45,48.3c-1,0-2.1-0.5-2.7-1.4c-1.1-1.5-0.8-3.6,0.7-4.7l14.7-10.7L43,20.8c-1.5-1.1-1.8-3.2-0.7-4.7
			s3.2-1.8,4.7-0.7l22.2,16.1L46.9,47.7C46.3,48.1,45.7,48.3,45,48.3L45,48.3z"/>
		<path class="st0" d="M60.1,71.8H36.6c-1.8,0-3.4-1.5-3.4-3.4s1.5-3.4,3.4-3.4h23.5c9.3,0,16.8-7.5,16.8-16.8
			c0-1.8,1.5-3.3,3.4-3.3s3.3,1.5,3.3,3.3C83.6,61.3,73,71.8,60.1,71.8L60.1,71.8z"/>
		<path class="st0" d="M53.3,85.3c-0.7,0-1.4-0.2-2-0.6L29.2,68.5l22.2-16.2c1.5-1.1,3.6-0.8,4.7,0.7s0.8,3.6-0.7,4.7L40.6,68.5
			l14.7,10.7c1.5,1.1,1.8,3.2,0.7,4.7C55.4,84.8,54.4,85.3,53.3,85.3L53.3,85.3z"/>
	</g>
</g>
</svg>
